<svg width="400" height="39" viewBox="0 0 400 39" fill="none" xmlns="http://www.w3.org/2000/svg">
<rect width="400" height="39" fill="#232F3F"/>
<path d="M25.6 11.416C23.12 11.416 21.88 13.808 21.88 18.592V20.488C21.88 22.76 22.208 24.544 22.864 25.84C23.52 27.12 24.488 27.76 25.768 27.76C27.528 27.76 29.144 26.048 30.616 22.624H31.048L30.88 27.976H30.616C30.52 27.8 30.432 27.68 30.352 27.616C30.272 27.536 30.152 27.496 29.992 27.496C29.848 27.496 29.272 27.624 28.264 27.88C27.256 28.12 26.232 28.24 25.192 28.24C22.584 28.24 20.56 27.536 19.12 26.128C17.696 24.72 16.984 22.608 16.984 19.792C16.984 16.96 17.728 14.776 19.216 13.24C20.72 11.704 22.736 10.936 25.264 10.936C26.24 10.936 27.192 11.064 28.12 11.32C29.064 11.56 29.616 11.68 29.776 11.68C29.936 11.68 30.056 11.648 30.136 11.584C30.216 11.504 30.304 11.376 30.4 11.2H30.664L30.856 16.408H30.424C29.704 14.792 28.96 13.56 28.192 12.712C27.44 11.848 26.576 11.416 25.6 11.416ZM33.1703 11.2H40.4903V11.656H39.1703V27.544H40.4903V28H33.1703V27.544H34.4903V11.656H33.1703V11.2ZM55.2616 11.656V28H51.9016L43.6696 12.472V27.544H44.9896V28H41.7016V27.544H43.0216V11.656H41.7016V11.2H48.3256L54.6136 23.248V11.656H53.2936V11.2H56.5816V11.656H55.2616ZM74.3157 19.312C74.3157 22.608 73.3877 24.904 71.5317 26.2C69.8197 27.4 67.4677 28 64.4757 28H57.6837V27.544H59.2677V11.656H57.6837V11.2H65.0997C68.1717 11.2 70.4757 11.832 72.0117 13.096C73.5477 14.344 74.3157 16.416 74.3157 19.312ZM63.9477 27.544H64.8597C66.4757 27.544 67.6277 26.976 68.3157 25.84C69.0197 24.688 69.3717 22.768 69.3717 20.08V18.688C69.3717 15.088 68.6837 12.92 67.3077 12.184C66.6517 11.832 65.7237 11.656 64.5237 11.656H63.9477V27.544ZM83.1689 19.504H81.8969V27.544H83.4569V28H75.6569V27.544H77.2169V11.656H75.6569V11.2H82.9049C84.9849 11.2 86.4569 11.312 87.3209 11.536C88.2009 11.744 88.8169 12 89.1689 12.304C89.9369 12.928 90.3209 13.92 90.3209 15.28C90.3209 16.64 89.9849 17.616 89.3129 18.208C88.6409 18.784 87.6169 19.128 86.2409 19.24V19.312C87.5369 19.488 88.4409 19.872 88.9529 20.464C89.4649 21.056 89.7209 22.048 89.7209 23.44V24.712C89.7209 25.544 89.7609 26.104 89.8409 26.392C89.9369 26.68 90.1289 26.824 90.4169 26.824C90.7049 26.824 90.9289 26.696 91.0889 26.44C91.2649 26.168 91.4249 25.608 91.5689 24.76L91.9769 24.808C91.8009 26.168 91.4889 27.08 91.0409 27.544C90.6089 28.008 89.7369 28.24 88.4249 28.24C87.1129 28.24 86.1769 27.936 85.6169 27.328C85.0729 26.704 84.8009 25.544 84.8009 23.848V22.096C84.8009 21.2 84.6809 20.544 84.4409 20.128C84.2169 19.712 83.7929 19.504 83.1689 19.504ZM81.8969 11.656V19.048H82.6649C83.5769 19.048 84.2489 18.768 84.6809 18.208C85.1289 17.648 85.3529 16.736 85.3529 15.472V14.776C85.3529 13.512 85.1369 12.68 84.7049 12.28C84.2889 11.864 83.6169 11.656 82.6889 11.656H81.8969ZM92.9806 11.2H105.461L105.701 15.952H105.269C104.597 14.336 103.893 13.232 103.157 12.64C102.421 12.032 101.341 11.728 99.9166 11.728H99.0766V19.144H99.8926C100.645 19.144 101.277 18.864 101.789 18.304C102.301 17.728 102.661 16.96 102.869 16H103.229V23.104H102.821C102.533 21.904 102.141 21.048 101.645 20.536C101.165 20.024 100.501 19.768 99.6526 19.768H99.0766V27.472H99.9886C101.461 27.472 102.709 27.032 103.733 26.152C104.773 25.272 105.485 24.144 105.869 22.768H106.349L106.157 28H92.9806V27.472H94.3966V11.728H92.9806V11.2ZM107.957 11.2H116.597V11.728H114.053V27.472H114.917C116.277 27.472 117.357 27.056 118.157 26.224C118.973 25.392 119.797 24.112 120.629 22.384H121.133L120.677 28H107.957V27.472H109.373V11.728H107.957V11.2ZM122.254 11.2H130.894V11.728H128.35V27.472H129.214C130.574 27.472 131.654 27.056 132.454 26.224C133.27 25.392 134.094 24.112 134.926 22.384H135.43L134.974 28H122.254V27.472H123.67V11.728H122.254V11.2ZM146.415 27.544L144.663 22.36H139.911L138.063 27.544H139.863V28H136.191V27.544H137.319L143.439 11.056H145.407L151.455 27.544H152.559V28H144.711V27.544H146.415ZM142.383 15.544L140.127 21.832H144.471L142.383 15.544Z" fill="white"/>
<path d="M162.312 13.944C162.768 14.096 163.22 14.172 163.668 14.172C164.164 14.172 164.52 14.048 164.736 13.8C164.952 13.544 165.06 13.128 165.06 12.552V6.684H166.284V12.528C166.284 14.312 165.448 15.204 163.776 15.204C163.304 15.204 162.816 15.1 162.312 14.892V13.944ZM170.466 10.848C170.466 11.936 170.69 12.764 171.138 13.332C171.594 13.892 172.25 14.172 173.106 14.172C173.962 14.172 174.614 13.888 175.062 13.32C175.51 12.752 175.734 11.928 175.734 10.848C175.734 9.768 175.51 8.948 175.062 8.388C174.614 7.82 173.962 7.536 173.106 7.536C172.242 7.536 171.586 7.82 171.138 8.388C170.69 8.948 170.466 9.768 170.466 10.848ZM169.206 10.848C169.206 9.96 169.358 9.192 169.662 8.544C169.966 7.888 170.41 7.384 170.994 7.032C171.586 6.68 172.29 6.504 173.106 6.504C174.314 6.504 175.262 6.892 175.95 7.668C176.646 8.436 176.994 9.496 176.994 10.848C176.994 11.736 176.842 12.508 176.538 13.164C176.234 13.812 175.79 14.316 175.206 14.676C174.622 15.028 173.922 15.204 173.106 15.204C172.314 15.204 171.626 15.036 171.042 14.7C170.458 14.356 170.006 13.856 169.686 13.2C169.366 12.544 169.206 11.76 169.206 10.848ZM180.022 15V6.684H181.246V15H180.022ZM185.642 8.388V15H184.514V6.684H185.846L189.938 13.332V6.684H191.066V15H189.722L185.642 8.388ZM199.809 11.784V15H198.621V6.684H201.633C202.441 6.684 203.085 6.916 203.565 7.38C204.045 7.836 204.285 8.456 204.285 9.24C204.285 10.016 204.045 10.636 203.565 11.1C203.085 11.556 202.441 11.784 201.633 11.784H199.809ZM199.809 10.812H201.525C202.029 10.812 202.409 10.68 202.665 10.416C202.921 10.144 203.049 9.752 203.049 9.24C203.049 8.184 202.541 7.656 201.525 7.656H199.809V10.812ZM207.017 15V6.684H210.053C210.861 6.684 211.505 6.908 211.985 7.356C212.465 7.796 212.705 8.392 212.705 9.144C212.705 9.696 212.553 10.176 212.249 10.584C211.953 10.984 211.533 11.276 210.989 11.46L213.197 15H211.865L209.825 11.652H208.205V15H207.017ZM208.205 10.68H209.897C210.409 10.68 210.797 10.552 211.061 10.296C211.333 10.04 211.469 9.66 211.469 9.156C211.469 8.66 211.341 8.288 211.085 8.04C210.829 7.784 210.449 7.656 209.945 7.656H208.205V10.68ZM215.624 15V6.684H216.848V15H215.624ZM227.052 15V8.46L224.712 12.876H223.596L221.244 8.448V15H220.116V6.684H221.484L224.172 11.784L226.848 6.684H228.18V15H227.052ZM231.394 15V6.684H236.566V7.668H232.618V10.224H235.93V11.208H232.618V14.016H236.566V15H231.394ZM244.789 8.388V15H243.661V6.684H244.993L249.085 13.332V6.684H250.213V15H248.869L244.789 8.388ZM254.448 10.848C254.448 11.936 254.672 12.764 255.12 13.332C255.576 13.892 256.232 14.172 257.088 14.172C257.944 14.172 258.596 13.888 259.044 13.32C259.492 12.752 259.716 11.928 259.716 10.848C259.716 9.768 259.492 8.948 259.044 8.388C258.596 7.82 257.944 7.536 257.088 7.536C256.224 7.536 255.568 7.82 255.12 8.388C254.672 8.948 254.448 9.768 254.448 10.848ZM253.188 10.848C253.188 9.96 253.34 9.192 253.644 8.544C253.948 7.888 254.392 7.384 254.976 7.032C255.568 6.68 256.272 6.504 257.088 6.504C258.296 6.504 259.244 6.892 259.932 7.668C260.628 8.436 260.976 9.496 260.976 10.848C260.976 11.736 260.824 12.508 260.52 13.164C260.216 13.812 259.772 14.316 259.188 14.676C258.604 15.028 257.904 15.204 257.088 15.204C256.296 15.204 255.608 15.036 255.024 14.7C254.44 14.356 253.988 13.856 253.668 13.2C253.348 12.544 253.188 11.76 253.188 10.848ZM269.795 15L268.223 8.484L266.639 15H265.271L262.847 6.684H264.179L265.967 13.656L267.563 6.924H268.907L270.503 13.668L272.303 6.684H273.587L271.163 15H269.795Z" fill="white"/>
<rect x="289" y="4" width="1" height="16" fill="white"/>
<path d="M306.33 18.884C306.209 18.884 306.12 18.856 306.064 18.8C306.008 18.7533 305.98 18.6647 305.98 18.534V9.196C305.98 9.06533 306.008 8.97667 306.064 8.93C306.12 8.874 306.209 8.846 306.33 8.846H307.338C307.553 8.846 307.683 8.94867 307.73 9.154L307.828 9.518C308.108 9.24733 308.444 9.03267 308.836 8.874C309.237 8.71533 309.643 8.636 310.054 8.636C310.959 8.636 311.673 8.96733 312.196 9.63C312.728 10.2927 312.994 11.1887 312.994 12.318C312.994 13.0927 312.863 13.7693 312.602 14.348C312.341 14.9267 311.986 15.3747 311.538 15.692C311.09 16 310.577 16.154 309.998 16.154C309.615 16.154 309.251 16.0933 308.906 15.972C308.561 15.8507 308.267 15.6827 308.024 15.468V18.534C308.024 18.6647 307.996 18.7533 307.94 18.8C307.893 18.856 307.805 18.884 307.674 18.884H306.33ZM309.396 14.614C309.919 14.614 310.301 14.4367 310.544 14.082C310.796 13.7273 310.922 13.1673 310.922 12.402C310.922 11.6273 310.801 11.0627 310.558 10.708C310.315 10.3533 309.928 10.176 309.396 10.176C308.911 10.176 308.453 10.302 308.024 10.554V14.236C308.435 14.488 308.892 14.614 309.396 14.614ZM314.943 16C314.822 16 314.733 15.972 314.677 15.916C314.621 15.86 314.593 15.7713 314.593 15.65V9.196C314.593 9.06533 314.621 8.97667 314.677 8.93C314.733 8.874 314.822 8.846 314.943 8.846H315.951C316.166 8.846 316.297 8.94867 316.343 9.154L316.525 9.91C316.899 9.49933 317.249 9.21 317.575 9.042C317.911 8.86467 318.266 8.776 318.639 8.776H318.835C318.966 8.776 319.059 8.804 319.115 8.86C319.171 8.90667 319.199 8.99533 319.199 9.126V10.302C319.199 10.4233 319.171 10.512 319.115 10.568C319.069 10.624 318.98 10.652 318.849 10.652C318.784 10.652 318.7 10.6473 318.597 10.638C318.495 10.6287 318.364 10.624 318.205 10.624C317.991 10.624 317.729 10.6567 317.421 10.722C317.113 10.778 316.852 10.8527 316.637 10.946V15.65C316.637 15.7713 316.609 15.86 316.553 15.916C316.507 15.972 316.418 16 316.287 16H314.943ZM320.673 16C320.552 16 320.463 15.972 320.407 15.916C320.351 15.86 320.323 15.7713 320.323 15.65V9.196C320.323 9.06533 320.351 8.97667 320.407 8.93C320.463 8.874 320.552 8.846 320.673 8.846H322.017C322.148 8.846 322.236 8.874 322.283 8.93C322.339 8.97667 322.367 9.06533 322.367 9.196V15.65C322.367 15.7713 322.339 15.86 322.283 15.916C322.236 15.972 322.148 16 322.017 16H320.673ZM321.345 7.74C320.99 7.74 320.706 7.642 320.491 7.446C320.276 7.25 320.169 6.984 320.169 6.648C320.169 6.312 320.276 6.046 320.491 5.85C320.706 5.654 320.99 5.556 321.345 5.556C321.7 5.556 321.984 5.654 322.199 5.85C322.414 6.046 322.521 6.312 322.521 6.648C322.521 6.984 322.414 7.25 322.199 7.446C321.984 7.642 321.7 7.74 321.345 7.74ZM324.732 16C324.611 16 324.522 15.972 324.466 15.916C324.41 15.86 324.382 15.7713 324.382 15.65V9.196C324.382 9.06533 324.41 8.97667 324.466 8.93C324.522 8.874 324.611 8.846 324.732 8.846H325.74C325.955 8.846 326.086 8.94867 326.132 9.154L326.244 9.532C326.739 9.20533 327.182 8.97667 327.574 8.846C327.976 8.706 328.386 8.636 328.806 8.636C329.646 8.636 330.239 8.93467 330.584 9.532C331.06 9.21467 331.508 8.986 331.928 8.846C332.348 8.706 332.782 8.636 333.23 8.636C333.884 8.636 334.388 8.818 334.742 9.182C335.106 9.546 335.288 10.0547 335.288 10.708V15.65C335.288 15.7713 335.26 15.86 335.204 15.916C335.158 15.972 335.069 16 334.938 16H333.594C333.473 16 333.384 15.972 333.328 15.916C333.272 15.86 333.244 15.7713 333.244 15.65V11.156C333.244 10.5213 332.96 10.204 332.39 10.204C331.886 10.204 331.378 10.3253 330.864 10.568V15.65C330.864 15.7713 330.836 15.86 330.78 15.916C330.734 15.972 330.645 16 330.514 16H329.17C329.049 16 328.96 15.972 328.904 15.916C328.848 15.86 328.82 15.7713 328.82 15.65V11.156C328.82 10.5213 328.536 10.204 327.966 10.204C327.444 10.204 326.93 10.33 326.426 10.582V15.65C326.426 15.7713 326.398 15.86 326.342 15.916C326.296 15.972 326.207 16 326.076 16H324.732ZM340.496 16.21C339.311 16.21 338.406 15.888 337.78 15.244C337.164 14.6 336.856 13.6573 336.856 12.416C336.856 11.2213 337.164 10.2927 337.78 9.63C338.396 8.96733 339.25 8.636 340.342 8.636C341.266 8.636 341.976 8.89267 342.47 9.406C342.974 9.91 343.226 10.6333 343.226 11.576C343.226 11.8653 343.203 12.1967 343.156 12.57C343.138 12.71 343.1 12.8033 343.044 12.85C342.988 12.8967 342.904 12.92 342.792 12.92H338.746C338.784 13.536 338.97 13.984 339.306 14.264C339.642 14.5347 340.17 14.67 340.888 14.67C341.402 14.67 341.999 14.5813 342.68 14.404C342.708 14.3947 342.736 14.39 342.764 14.39C342.792 14.3807 342.816 14.376 342.834 14.376C342.993 14.376 343.072 14.4833 343.072 14.698V15.342C343.072 15.4913 343.049 15.5987 343.002 15.664C342.965 15.72 342.886 15.7713 342.764 15.818C342.055 16.0793 341.299 16.21 340.496 16.21ZM341.476 11.66V11.422C341.476 10.5073 341.075 10.05 340.272 10.05C339.815 10.05 339.451 10.19 339.18 10.47C338.919 10.7407 338.77 11.1373 338.732 11.66H341.476Z" fill="#00B9E7"/>
<path d="M350.615 16C350.521 16 350.442 15.9907 350.377 15.972C350.321 15.944 350.269 15.9067 350.223 15.86C350.185 15.804 350.148 15.7293 350.111 15.636L347.717 9.406C347.689 9.33133 347.665 9.266 347.647 9.21C347.628 9.154 347.619 9.10267 347.619 9.056C347.619 8.916 347.712 8.846 347.899 8.846H349.299C349.448 8.846 349.555 8.874 349.621 8.93C349.695 8.986 349.751 9.07933 349.789 9.21L351.231 14.166L352.701 9.21C352.738 9.07933 352.789 8.986 352.855 8.93C352.929 8.874 353.041 8.846 353.191 8.846H354.549C354.735 8.846 354.829 8.916 354.829 9.056C354.829 9.10267 354.819 9.154 354.801 9.21C354.782 9.266 354.759 9.33133 354.731 9.406L352.337 15.636C352.299 15.7293 352.257 15.804 352.211 15.86C352.173 15.9067 352.127 15.944 352.071 15.972C352.015 15.9907 351.935 16 351.833 16H350.615ZM356.357 16C356.235 16 356.147 15.972 356.091 15.916C356.035 15.86 356.007 15.7713 356.007 15.65V9.196C356.007 9.06533 356.035 8.97667 356.091 8.93C356.147 8.874 356.235 8.846 356.357 8.846H357.701C357.831 8.846 357.92 8.874 357.967 8.93C358.023 8.97667 358.051 9.06533 358.051 9.196V15.65C358.051 15.7713 358.023 15.86 357.967 15.916C357.92 15.972 357.831 16 357.701 16H356.357ZM357.029 7.74C356.674 7.74 356.389 7.642 356.175 7.446C355.96 7.25 355.853 6.984 355.853 6.648C355.853 6.312 355.96 6.046 356.175 5.85C356.389 5.654 356.674 5.556 357.029 5.556C357.383 5.556 357.668 5.654 357.883 5.85C358.097 6.046 358.205 6.312 358.205 6.648C358.205 6.984 358.097 7.25 357.883 7.446C357.668 7.642 357.383 7.74 357.029 7.74ZM362.67 16.154C362.063 16.154 361.536 16 361.088 15.692C360.64 15.3747 360.295 14.9407 360.052 14.39C359.819 13.83 359.702 13.186 359.702 12.458C359.702 11.3007 359.977 10.3767 360.528 9.686C361.079 8.986 361.807 8.636 362.712 8.636C363.449 8.636 364.089 8.846 364.63 9.266V5.99C364.63 5.85933 364.658 5.77067 364.714 5.724C364.77 5.668 364.859 5.64 364.98 5.64H366.324C366.455 5.64 366.543 5.668 366.59 5.724C366.646 5.77067 366.674 5.85933 366.674 5.99V15.65C366.674 15.7713 366.646 15.86 366.59 15.916C366.543 15.972 366.455 16 366.324 16H365.204C365.092 16 365.003 15.9767 364.938 15.93C364.882 15.8833 364.84 15.804 364.812 15.692L364.728 15.37C364.149 15.8927 363.463 16.154 362.67 16.154ZM363.342 14.614C363.79 14.614 364.219 14.4833 364.63 14.222V10.526C364.229 10.2927 363.767 10.176 363.244 10.176C362.749 10.176 362.381 10.3627 362.138 10.736C361.895 11.1 361.774 11.6553 361.774 12.402C361.774 13.1487 361.9 13.704 362.152 14.068C362.413 14.432 362.81 14.614 363.342 14.614ZM371.914 16.21C370.729 16.21 369.824 15.888 369.198 15.244C368.582 14.6 368.274 13.6573 368.274 12.416C368.274 11.2213 368.582 10.2927 369.198 9.63C369.814 8.96733 370.668 8.636 371.76 8.636C372.684 8.636 373.394 8.89267 373.888 9.406C374.392 9.91 374.644 10.6333 374.644 11.576C374.644 11.8653 374.621 12.1967 374.574 12.57C374.556 12.71 374.518 12.8033 374.462 12.85C374.406 12.8967 374.322 12.92 374.21 12.92H370.164C370.202 13.536 370.388 13.984 370.724 14.264C371.06 14.5347 371.588 14.67 372.306 14.67C372.82 14.67 373.417 14.5813 374.098 14.404C374.126 14.3947 374.154 14.39 374.182 14.39C374.21 14.3807 374.234 14.376 374.252 14.376C374.411 14.376 374.49 14.4833 374.49 14.698V15.342C374.49 15.4913 374.467 15.5987 374.42 15.664C374.383 15.72 374.304 15.7713 374.182 15.818C373.473 16.0793 372.717 16.21 371.914 16.21ZM372.894 11.66V11.422C372.894 10.5073 372.493 10.05 371.69 10.05C371.233 10.05 370.869 10.19 370.598 10.47C370.337 10.7407 370.188 11.1373 370.15 11.66H372.894ZM379.39 16.21C378.28 16.21 377.412 15.8787 376.786 15.216C376.161 14.544 375.848 13.6107 375.848 12.416C375.848 11.2307 376.161 10.3067 376.786 9.644C377.412 8.972 378.28 8.636 379.39 8.636C380.501 8.636 381.369 8.972 381.994 9.644C382.62 10.3067 382.932 11.2307 382.932 12.416C382.932 13.6107 382.62 14.544 381.994 15.216C381.369 15.8787 380.501 16.21 379.39 16.21ZM379.39 14.642C380.37 14.642 380.86 13.9 380.86 12.416C380.86 10.9413 380.37 10.204 379.39 10.204C378.41 10.204 377.92 10.9413 377.92 12.416C377.92 13.9 378.41 14.642 379.39 14.642Z" fill="white"/>
<path d="M220.024 29.128C219.912 29.112 219.811 29.072 219.72 29.008C219.629 28.9387 219.557 28.8507 219.504 28.744L220.224 27.936L219.304 27.72C219.293 27.6667 219.288 27.624 219.288 27.592C219.288 27.4107 219.357 27.2507 219.496 27.112L220.36 27.536L220.248 26.504C220.355 26.456 220.467 26.432 220.584 26.432C220.707 26.432 220.819 26.456 220.92 26.504L220.808 27.536L221.672 27.112C221.811 27.2507 221.88 27.4107 221.88 27.592C221.88 27.624 221.875 27.6667 221.864 27.72L220.944 27.936L221.664 28.744C221.611 28.8507 221.539 28.9387 221.448 29.008C221.357 29.072 221.256 29.112 221.144 29.128L220.584 28.16L220.024 29.128ZM222.844 32V26.456H224.868C225.407 26.456 225.836 26.6053 226.156 26.904C226.476 27.1973 226.636 27.5947 226.636 28.096C226.636 28.464 226.535 28.784 226.332 29.056C226.135 29.3227 225.855 29.5173 225.492 29.64L226.964 32H226.076L224.716 29.768H223.636V32H222.844ZM223.636 29.12H224.764C225.105 29.12 225.364 29.0347 225.54 28.864C225.721 28.6933 225.812 28.44 225.812 28.104C225.812 27.7733 225.727 27.5253 225.556 27.36C225.385 27.1893 225.132 27.104 224.796 27.104H223.636V29.12ZM228.152 30.144C228.163 30.6027 228.275 30.9413 228.488 31.16C228.707 31.3787 229.043 31.488 229.496 31.488C229.917 31.488 230.347 31.4053 230.784 31.24V31.808C230.4 32.016 229.931 32.12 229.376 32.12C228.72 32.12 228.224 31.9387 227.888 31.576C227.552 31.2133 227.384 30.6773 227.384 29.968C227.384 29.2907 227.552 28.7653 227.888 28.392C228.224 28.0133 228.693 27.824 229.296 27.824C229.803 27.824 230.192 27.968 230.464 28.256C230.736 28.5387 230.872 28.9413 230.872 29.464C230.872 29.7147 230.851 29.9413 230.808 30.144H228.152ZM229.256 28.424C228.92 28.424 228.659 28.5253 228.472 28.728C228.285 28.9253 228.179 29.2213 228.152 29.616H230.144C230.149 29.5733 230.152 29.504 230.152 29.408C230.152 29.0827 230.075 28.8373 229.92 28.672C229.771 28.5067 229.549 28.424 229.256 28.424ZM234.706 32L234.602 31.584C234.426 31.744 234.226 31.8693 234.002 31.96C233.778 32.0453 233.552 32.088 233.322 32.088C232.986 32.088 232.69 32.0053 232.434 31.84C232.178 31.6747 231.978 31.4347 231.834 31.12C231.69 30.8 231.618 30.424 231.618 29.992C231.618 29.56 231.688 29.1813 231.826 28.856C231.965 28.5307 232.162 28.2773 232.418 28.096C232.68 27.9147 232.989 27.824 233.346 27.824C233.8 27.824 234.208 27.9733 234.57 28.272V26.08H235.362V32H234.706ZM233.562 31.448C233.893 31.448 234.229 31.3253 234.57 31.08V28.816C234.405 28.6933 234.237 28.6053 234.066 28.552C233.901 28.4933 233.717 28.464 233.514 28.464C232.789 28.464 232.426 28.9653 232.426 29.968C232.426 30.9547 232.805 31.448 233.562 31.448ZM236.577 32V27.944H237.369V32H236.577ZM236.977 27.224C236.822 27.224 236.7 27.1813 236.609 27.096C236.524 27.0053 236.481 26.888 236.481 26.744C236.481 26.6 236.524 26.4853 236.609 26.4C236.7 26.3093 236.822 26.264 236.977 26.264C237.132 26.264 237.252 26.3093 237.337 26.4C237.428 26.4853 237.473 26.6 237.473 26.744C237.473 26.888 237.428 27.0053 237.337 27.096C237.252 27.1813 237.132 27.224 236.977 27.224ZM238.584 32V27.944H239.248L239.336 28.544C239.486 28.384 239.624 28.2613 239.752 28.176C239.88 28.0853 240.011 28.0187 240.144 27.976C240.278 27.9333 240.422 27.912 240.576 27.912C240.678 27.912 240.787 27.92 240.904 27.936V28.656C240.734 28.6347 240.59 28.624 240.472 28.624C240.046 28.624 239.68 28.752 239.376 29.008V32H238.584ZM242.05 30.144C242.061 30.6027 242.173 30.9413 242.386 31.16C242.605 31.3787 242.941 31.488 243.394 31.488C243.816 31.488 244.245 31.4053 244.682 31.24V31.808C244.298 32.016 243.829 32.12 243.274 32.12C242.618 32.12 242.122 31.9387 241.786 31.576C241.45 31.2133 241.282 30.6773 241.282 29.968C241.282 29.2907 241.45 28.7653 241.786 28.392C242.122 28.0133 242.592 27.824 243.194 27.824C243.701 27.824 244.09 27.968 244.362 28.256C244.634 28.5387 244.77 28.9413 244.77 29.464C244.77 29.7147 244.749 29.9413 244.706 30.144H242.05ZM243.154 28.424C242.818 28.424 242.557 28.5253 242.37 28.728C242.184 28.9253 242.077 29.2213 242.05 29.616H244.042C244.048 29.5733 244.05 29.504 244.05 29.408C244.05 29.0827 243.973 28.8373 243.818 28.672C243.669 28.5067 243.448 28.424 243.154 28.424ZM248.533 31.848C248.223 32.008 247.866 32.088 247.461 32.088C246.831 32.088 246.349 31.9093 246.013 31.552C245.682 31.1893 245.517 30.6667 245.517 29.984C245.517 29.3067 245.687 28.784 246.029 28.416C246.375 28.0427 246.863 27.856 247.493 27.856C247.85 27.856 248.186 27.9307 248.501 28.08V28.648C248.197 28.552 247.898 28.504 247.605 28.504C247.157 28.504 246.834 28.6187 246.637 28.848C246.439 29.072 246.341 29.432 246.341 29.928V30.032C246.341 30.5173 246.439 30.8747 246.637 31.104C246.839 31.328 247.157 31.44 247.589 31.44C247.877 31.44 248.191 31.3867 248.533 31.28V31.848ZM251.77 31.904C251.509 32.0053 251.213 32.056 250.882 32.056C250.125 32.056 249.746 31.6773 249.746 30.92V28.568H249.01V28.056L249.77 27.96L249.89 26.808H250.538V27.944H251.738V28.568H250.538V30.88C250.538 31.0773 250.581 31.216 250.666 31.296C250.757 31.376 250.909 31.416 251.122 31.416C251.341 31.416 251.557 31.3893 251.77 31.336V31.904ZM254.457 30.912C254.457 30.784 254.414 30.68 254.329 30.6C254.249 30.52 254.1 30.44 253.881 30.36L253.201 30.104C252.609 29.8853 252.313 29.512 252.313 28.984C252.313 28.6373 252.446 28.3573 252.713 28.144C252.985 27.9307 253.34 27.824 253.777 27.824C254.198 27.824 254.596 27.9093 254.969 28.08V28.64C254.553 28.5067 254.169 28.44 253.817 28.44C253.305 28.44 253.049 28.6133 253.049 28.96C253.049 29.0987 253.092 29.208 253.177 29.288C253.262 29.368 253.43 29.456 253.681 29.552L254.305 29.792C254.62 29.9147 254.846 30.0613 254.985 30.232C255.124 30.3973 255.193 30.6133 255.193 30.88C255.193 31.2587 255.052 31.56 254.769 31.784C254.486 32.008 254.11 32.12 253.641 32.12C253.113 32.12 252.654 32.0187 252.265 31.816V31.256C252.766 31.4213 253.23 31.504 253.657 31.504C253.918 31.504 254.116 31.4533 254.249 31.352C254.388 31.2507 254.457 31.104 254.457 30.912ZM260.38 31.904C260.118 32.0053 259.822 32.056 259.492 32.056C258.734 32.056 258.356 31.6773 258.356 30.92V28.568H257.62V28.056L258.38 27.96L258.5 26.808H259.148V27.944H260.348V28.568H259.148V30.88C259.148 31.0773 259.19 31.216 259.276 31.296C259.366 31.376 259.518 31.416 259.732 31.416C259.95 31.416 260.166 31.3893 260.38 31.336V31.904ZM262.89 32.12C262.282 32.12 261.808 31.9307 261.466 31.552C261.125 31.1733 260.954 30.6453 260.954 29.968C260.954 29.296 261.125 28.7707 261.466 28.392C261.808 28.0133 262.282 27.824 262.89 27.824C263.498 27.824 263.973 28.0133 264.314 28.392C264.656 28.7707 264.826 29.296 264.826 29.968C264.826 30.6453 264.656 31.1733 264.314 31.552C263.973 31.9307 263.498 32.12 262.89 32.12ZM262.89 31.48C263.642 31.48 264.018 30.976 264.018 29.968C264.018 28.9653 263.642 28.464 262.89 28.464C262.138 28.464 261.762 28.9653 261.762 29.968C261.762 30.976 262.138 31.48 262.89 31.48ZM268.769 29.856V32H267.977V26.456H269.985C270.523 26.456 270.953 26.6107 271.273 26.92C271.593 27.224 271.753 27.6373 271.753 28.16C271.753 28.6773 271.593 29.0907 271.273 29.4C270.953 29.704 270.523 29.856 269.985 29.856H268.769ZM268.769 29.208H269.913C270.249 29.208 270.502 29.12 270.673 28.944C270.843 28.7627 270.929 28.5013 270.929 28.16C270.929 27.456 270.59 27.104 269.913 27.104H268.769V29.208ZM272.694 32V27.944H273.358L273.446 28.544C273.595 28.384 273.734 28.2613 273.862 28.176C273.99 28.0853 274.12 28.0187 274.254 27.976C274.387 27.9333 274.531 27.912 274.686 27.912C274.787 27.912 274.896 27.92 275.014 27.936V28.656C274.843 28.6347 274.699 28.624 274.582 28.624C274.155 28.624 273.79 28.752 273.486 29.008V32H272.694ZM275.71 32V27.944H276.502V32H275.71ZM276.11 27.224C275.955 27.224 275.833 27.1813 275.742 27.096C275.657 27.0053 275.614 26.888 275.614 26.744C275.614 26.6 275.657 26.4853 275.742 26.4C275.833 26.3093 275.955 26.264 276.11 26.264C276.265 26.264 276.385 26.3093 276.47 26.4C276.561 26.4853 276.606 26.6 276.606 26.744C276.606 26.888 276.561 27.0053 276.47 27.096C276.385 27.1813 276.265 27.224 276.11 27.224ZM282.901 32V29.248C282.901 28.9813 282.85 28.784 282.749 28.656C282.648 28.528 282.488 28.464 282.269 28.464C281.88 28.464 281.488 28.584 281.093 28.824C281.098 28.8613 281.101 28.9013 281.101 28.944C281.101 28.9867 281.101 29.0293 281.101 29.072V32H280.309V29.248C280.309 28.9813 280.258 28.784 280.157 28.656C280.056 28.528 279.896 28.464 279.677 28.464C279.272 28.464 278.882 28.5813 278.509 28.816V32H277.717V27.944H278.381L278.461 28.352C278.973 28 279.472 27.824 279.957 27.824C280.453 27.824 280.789 28.0133 280.965 28.392C281.493 28.0133 282.021 27.824 282.549 27.824C282.917 27.824 283.2 27.928 283.397 28.136C283.594 28.344 283.693 28.64 283.693 29.024V32H282.901ZM285.418 30.144C285.428 30.6027 285.54 30.9413 285.754 31.16C285.972 31.3787 286.308 31.488 286.762 31.488C287.183 31.488 287.612 31.4053 288.05 31.24V31.808C287.666 32.016 287.196 32.12 286.642 32.12C285.986 32.12 285.49 31.9387 285.154 31.576C284.818 31.2133 284.65 30.6773 284.65 29.968C284.65 29.2907 284.818 28.7653 285.154 28.392C285.49 28.0133 285.959 27.824 286.562 27.824C287.068 27.824 287.458 27.968 287.73 28.256C288.002 28.5387 288.138 28.9413 288.138 29.464C288.138 29.7147 288.116 29.9413 288.074 30.144H285.418ZM286.522 28.424C286.186 28.424 285.924 28.5253 285.738 28.728C285.551 28.9253 285.444 29.2213 285.418 29.616H287.41C287.415 29.5733 287.418 29.504 287.418 29.408C287.418 29.0827 287.34 28.8373 287.186 28.672C287.036 28.5067 286.815 28.424 286.522 28.424ZM290.62 32L288.58 26.456H289.476L291.076 31.184L292.676 26.456H293.54L291.5 32H290.62ZM294.241 32V27.944H295.033V32H294.241ZM294.641 27.224C294.487 27.224 294.364 27.1813 294.273 27.096C294.188 27.0053 294.145 26.888 294.145 26.744C294.145 26.6 294.188 26.4853 294.273 26.4C294.364 26.3093 294.487 26.264 294.641 26.264C294.796 26.264 294.916 26.3093 295.001 26.4C295.092 26.4853 295.137 26.6 295.137 26.744C295.137 26.888 295.092 27.0053 295.001 27.096C294.916 27.1813 294.796 27.224 294.641 27.224ZM299.128 32L299.024 31.584C298.848 31.744 298.648 31.8693 298.424 31.96C298.2 32.0453 297.974 32.088 297.744 32.088C297.408 32.088 297.112 32.0053 296.856 31.84C296.6 31.6747 296.4 31.4347 296.256 31.12C296.112 30.8 296.04 30.424 296.04 29.992C296.04 29.56 296.11 29.1813 296.248 28.856C296.387 28.5307 296.584 28.2773 296.84 28.096C297.102 27.9147 297.411 27.824 297.768 27.824C298.222 27.824 298.63 27.9733 298.992 28.272V26.08H299.784V32H299.128ZM297.984 31.448C298.315 31.448 298.651 31.3253 298.992 31.08V28.816C298.827 28.6933 298.659 28.6053 298.488 28.552C298.323 28.4933 298.139 28.464 297.936 28.464C297.211 28.464 296.848 28.9653 296.848 29.968C296.848 30.9547 297.227 31.448 297.984 31.448ZM301.527 30.144C301.538 30.6027 301.65 30.9413 301.863 31.16C302.082 31.3787 302.418 31.488 302.871 31.488C303.292 31.488 303.722 31.4053 304.159 31.24V31.808C303.775 32.016 303.306 32.12 302.751 32.12C302.095 32.12 301.599 31.9387 301.263 31.576C300.927 31.2133 300.759 30.6773 300.759 29.968C300.759 29.2907 300.927 28.7653 301.263 28.392C301.599 28.0133 302.068 27.824 302.671 27.824C303.178 27.824 303.567 27.968 303.839 28.256C304.111 28.5387 304.247 28.9413 304.247 29.464C304.247 29.7147 304.226 29.9413 304.183 30.144H301.527ZM302.631 28.424C302.295 28.424 302.034 28.5253 301.847 28.728C301.66 28.9253 301.554 29.2213 301.527 29.616H303.519C303.524 29.5733 303.527 29.504 303.527 29.408C303.527 29.0827 303.45 28.8373 303.295 28.672C303.146 28.5067 302.924 28.424 302.631 28.424ZM306.929 32.12C306.321 32.12 305.847 31.9307 305.505 31.552C305.164 31.1733 304.993 30.6453 304.993 29.968C304.993 29.296 305.164 28.7707 305.505 28.392C305.847 28.0133 306.321 27.824 306.929 27.824C307.537 27.824 308.012 28.0133 308.353 28.392C308.695 28.7707 308.865 29.296 308.865 29.968C308.865 30.6453 308.695 31.1733 308.353 31.552C308.012 31.9307 307.537 32.12 306.929 32.12ZM306.929 31.48C307.681 31.48 308.057 30.976 308.057 29.968C308.057 28.9653 307.681 28.464 306.929 28.464C306.177 28.464 305.801 28.9653 305.801 29.968C305.801 30.976 306.177 31.48 306.929 31.48ZM310.242 32.08C310.087 32.08 309.962 32.032 309.866 31.936C309.77 31.8347 309.722 31.7067 309.722 31.552C309.722 31.3973 309.77 31.272 309.866 31.176C309.962 31.0747 310.087 31.024 310.242 31.024C310.397 31.024 310.522 31.0747 310.618 31.176C310.714 31.272 310.762 31.3973 310.762 31.552C310.762 31.7067 310.714 31.8347 310.618 31.936C310.522 32.032 310.397 32.08 310.242 32.08ZM314.634 31.848C314.325 32.008 313.968 32.088 313.562 32.088C312.933 32.088 312.45 31.9093 312.114 31.552C311.784 31.1893 311.618 30.6667 311.618 29.984C311.618 29.3067 311.789 28.784 312.13 28.416C312.477 28.0427 312.965 27.856 313.594 27.856C313.952 27.856 314.288 27.9307 314.602 28.08V28.648C314.298 28.552 314 28.504 313.706 28.504C313.258 28.504 312.936 28.6187 312.738 28.848C312.541 29.072 312.442 29.432 312.442 29.928V30.032C312.442 30.5173 312.541 30.8747 312.738 31.104C312.941 31.328 313.258 31.44 313.69 31.44C313.978 31.44 314.293 31.3867 314.634 31.28V31.848ZM317.125 32.12C316.517 32.12 316.042 31.9307 315.701 31.552C315.359 31.1733 315.189 30.6453 315.189 29.968C315.189 29.296 315.359 28.7707 315.701 28.392C316.042 28.0133 316.517 27.824 317.125 27.824C317.733 27.824 318.207 28.0133 318.549 28.392C318.89 28.7707 319.061 29.296 319.061 29.968C319.061 30.6453 318.89 31.1733 318.549 31.552C318.207 31.9307 317.733 32.12 317.125 32.12ZM317.125 31.48C317.877 31.48 318.253 30.976 318.253 29.968C318.253 28.9653 317.877 28.464 317.125 28.464C316.373 28.464 315.997 28.9653 315.997 29.968C315.997 30.976 316.373 31.48 317.125 31.48ZM325.221 32V29.248C325.221 28.9813 325.171 28.784 325.069 28.656C324.968 28.528 324.808 28.464 324.589 28.464C324.2 28.464 323.808 28.584 323.413 28.824C323.419 28.8613 323.421 28.9013 323.421 28.944C323.421 28.9867 323.421 29.0293 323.421 29.072V32H322.629V29.248C322.629 28.9813 322.579 28.784 322.477 28.656C322.376 28.528 322.216 28.464 321.997 28.464C321.592 28.464 321.203 28.5813 320.829 28.816V32H320.037V27.944H320.701L320.781 28.352C321.293 28 321.792 27.824 322.277 27.824C322.773 27.824 323.109 28.0133 323.285 28.392C323.813 28.0133 324.341 27.824 324.869 27.824C325.237 27.824 325.52 27.928 325.717 28.136C325.915 28.344 326.013 28.64 326.013 29.024V32H325.221Z" fill="white"/>
</svg>
